<svg xmlns="http://www.w3.org/2000/svg" width="288" height="288"><svg xmlns="http://www.w3.org/2000/svg" width="288" height="288" viewBox="0 0 256 256"><g class="color000 svgShape" transform="translate(0 -5356.598) scale(5.33333)"><path fill="#120342" d="m 48,1028.3622 c 0,13.2548 -10.74525,24 -24,24 -13.25475,0 -24,-10.7452 -24,-24 0,-13.2547 10.74525,-24 24,-24 13.25475,0 24,10.7453 24,24" class="color76c2af svgShape"/><path fill-opacity=".196" d="m 23.474609,5.8710938 c -4.672555,0 -8.459001,3.7863843 -8.458984,8.4589842 3e-6,0.8149 0.379751,3.087603 1.201172,4.345703 0,0 3.086104,2.822969 7.25,6.541016 -3.653525,0.02761 -7.625454,0.04392 -10.644531,2.029297 -2.147453,1.4123 -3.768058,3.902628 -4.2675785,6.423828 -0.3950273,1.9938 -1.9711036,4.449169 1.1835937,5.980469 1.2895508,0.625911 5.6516558,4.150193 10.6542968,8.078125 C 21.569556,47.905992 22.773524,48 24,48 36.736974,48 47.15069,38.0756 47.945312,25.539062 38.86939,16.79164 27.410156,6.8398438 27.410156,6.8398438 26.2326,6.1783437 24.18889,5.8710938 23.474609,5.8710938 Z" class="color000 svgShape" transform="translate(0 1004.362)"/><circle cx="23.475" cy="1018.693" r="8.46" fill="#fff" class="colorfff svgShape"/><path fill="#fff" d="m 39.604738,1038.0312 c 0.319987,2.0158 1.700566,4.4269 -1.386392,5.9641 -3.086958,1.5371 -9.299315,2.4964 -14.138787,2.4964 -4.839472,0 -11.187308,-0.9475 -14.3420049,-2.4787 -3.1546973,-1.5313 -1.5782008,-3.988 -1.1831735,-5.9818 0.4995205,-2.5212 2.1197664,-5.0099 4.2672194,-6.4222 3.186388,-2.0954 7.444473,-2.0018 11.257959,-2.0382 3.896665,-0.037 8.311337,-0.3174 11.541153,1.8629 2.129303,1.4373 3.581256,4.0602 3.984026,6.5975 z" class="colorfff svgShape"/><path fill="#120342" d="m 24,1046.2671 -3.367641,-4.7756 3.367641,-8.058 3.367641,8.058 z m 0,-11.9648 -3.367641,-4.7756 6.735282,0 z" class="color4f5d73 svgShape"/></g></svg></svg>
